<svg id="visual" viewBox="0 0 1470 900" width="1470" height="900" xmlns="http://www.w3.org/2000/svg" xmlns:xlink="http://www.w3.org/1999/xlink" version="1.1"><rect x="0" y="0" width="1470" height="900" fill="#001220"></rect><path d="M0 550L35 560.7C70 571.3 140 592.7 210 607C280 621.3 350 628.7 420 618.5C490 608.3 560 580.7 630 578C700 575.3 770 597.7 840 616.2C910 634.7 980 649.3 1050 640.8C1120 632.3 1190 600.7 1260 587.8C1330 575 1400 581 1435 584L1470 587L1470 901L1435 901C1400 901 1330 901 1260 901C1190 901 1120 901 1050 901C980 901 910 901 840 901C770 901 700 901 630 901C560 901 490 901 420 901C350 901 280 901 210 901C140 901 70 901 35 901L0 901Z" fill="#fa7268"></path><path d="M0 724L35 725.7C70 727.3 140 730.7 210 724.3C280 718 350 702 420 693.7C490 685.3 560 684.7 630 681.3C700 678 770 672 840 666.3C910 660.7 980 655.3 1050 657.7C1120 660 1190 670 1260 680.8C1330 691.7 1400 703.3 1435 709.2L1470 715L1470 901L1435 901C1400 901 1330 901 1260 901C1190 901 1120 901 1050 901C980 901 910 901 840 901C770 901 700 901 630 901C560 901 490 901 420 901C350 901 280 901 210 901C140 901 70 901 35 901L0 901Z" fill="#e34c67"></path><path d="M0 809L35 812.5C70 816 140 823 210 823.2C280 823.3 350 816.7 420 806.7C490 796.7 560 783.3 630 778C700 772.7 770 775.3 840 776.8C910 778.3 980 778.7 1050 777.3C1120 776 1190 773 1260 767.5C1330 762 1400 754 1435 750L1470 746L1470 901L1435 901C1400 901 1330 901 1260 901C1190 901 1120 901 1050 901C980 901 910 901 840 901C770 901 700 901 630 901C560 901 490 901 420 901C350 901 280 901 210 901C140 901 70 901 35 901L0 901Z" fill="#c62368"></path></svg>