<svg id="visual" viewBox="0 0 400 845" width="400" height="845" xmlns="http://www.w3.org/2000/svg" xmlns:xlink="http://www.w3.org/1999/xlink" version="1.1"><rect x="0" y="0" width="400" height="845" fill="#001220"></rect><path d="M0 555L9.5 571.3C19 587.7 38 620.3 57 622.2C76 624 95 595 114 579.8C133 564.7 152 563.3 171.2 570.7C190.3 578 209.7 594 228.8 591.3C248 588.7 267 567.3 286 558.8C305 550.3 324 554.7 343 564.2C362 573.7 381 588.3 390.5 595.7L400 603L400 846L390.5 846C381 846 362 846 343 846C324 846 305 846 286 846C267 846 248 846 228.8 846C209.7 846 190.3 846 171.2 846C152 846 133 846 114 846C95 846 76 846 57 846C38 846 19 846 9.5 846L0 846Z" fill="#fa7268"></path><path d="M0 705L9.5 690C19 675 38 645 57 646C76 647 95 679 114 683.7C133 688.3 152 665.7 171.2 648.2C190.3 630.7 209.7 618.3 228.8 613C248 607.7 267 609.3 286 622.3C305 635.3 324 659.7 343 678.5C362 697.3 381 710.7 390.5 717.3L400 724L400 846L390.5 846C381 846 362 846 343 846C324 846 305 846 286 846C267 846 248 846 228.8 846C209.7 846 190.3 846 171.2 846C152 846 133 846 114 846C95 846 76 846 57 846C38 846 19 846 9.5 846L0 846Z" fill="#e34c67"></path><path d="M0 705L9.5 713.8C19 722.7 38 740.3 57 743.3C76 746.3 95 734.7 114 739.2C133 743.7 152 764.3 171.2 762.7C190.3 761 209.7 737 228.8 737.3C248 737.7 267 762.3 286 770.8C305 779.3 324 771.7 343 767.8C362 764 381 764 390.5 764L400 764L400 846L390.5 846C381 846 362 846 343 846C324 846 305 846 286 846C267 846 248 846 228.8 846C209.7 846 190.3 846 171.2 846C152 846 133 846 114 846C95 846 76 846 57 846C38 846 19 846 9.5 846L0 846Z" fill="#c62368"></path></svg>